HIERARCHY
ROOT hip
{
  OFFSET -21.6801 77.7141 -16.0867
  CHANNELS 6 Xposition Yposition Zposition Zrotation Xrotation Yrotation
  JOINT abdomen
  {
    OFFSET 0 20.6881 -0.73152
    CHANNELS 3 Zrotation Xrotation Yrotation
    JOINT chest
    {
      OFFSET 0 11.7043 -0.48768
      CHANNELS 3 Zrotation Xrotation Yrotation
      JOINT neck
      {
        OFFSET 0 22.1894 -2.19456
        CHANNELS 3 Zrotation Xrotation Yrotation
        JOINT head
        {
          OFFSET -0.24384 7.07133 1.2192
          CHANNELS 3 Zrotation Xrotation Yrotation
          JOINT leftEye
          {
            OFFSET 4.14528 8.04674 8.04672
            CHANNELS 3 Zrotation Xrotation Yrotation
            End Site
            {
              OFFSET 1 0 0
            }
          }
          JOINT rightEye
          {
            OFFSET -3.6576 8.04674 8.04672
            CHANNELS 3 Zrotation Xrotation Yrotation
            End Site
            {
              OFFSET 1 0 0
            }
          }
        }
      }
      JOINT rCollar
      {
        OFFSET -2.68224 19.2634 -4.8768
        CHANNELS 3 Zrotation Xrotation Yrotation
        JOINT rShldr
        {
          OFFSET -8.77824 -1.95073 1.46304
          CHANNELS 3 Zrotation Xrotation Yrotation
          JOINT rForeArm
          {
            OFFSET -28.1742 -1.7115 0.48768
            CHANNELS 3 Zrotation Xrotation Yrotation
            JOINT rHand
            {
              OFFSET -22.5879 0.773209 7.07136
              CHANNELS 3 Zrotation Xrotation Yrotation
              JOINT rThumb1
              {
                OFFSET -1.2192 -0.487915 3.41376
                CHANNELS 3 Zrotation Xrotation Yrotation
                JOINT rThumb2
                {
                  OFFSET -3.37035 -0.52449 3.41376
                  CHANNELS 3 Zrotation Xrotation Yrotation
                  End Site
                  {
                    OFFSET -1.78271 -1.18214 1.43049
                  }
                }
              }
              JOINT rIndex1
              {
                OFFSET -7.75947 0.938293 5.60832
                CHANNELS 3 Zrotation Xrotation Yrotation
                JOINT rIndex2
                {
                  OFFSET -2.54057 -0.884171 1.56538
                  CHANNELS 3 Zrotation Xrotation Yrotation
                  End Site
                  {
                    OFFSET -1.62519 -0.234802 1.16502
                  }
                }
              }
              JOINT rMid1
              {
                OFFSET -8.24714 1.18213 3.41376
                CHANNELS 3 Zrotation Xrotation Yrotation
                JOINT rMid2
                {
                  OFFSET -3.10165 -0.590103 1.0647
                  CHANNELS 3 Zrotation Xrotation Yrotation
                  End Site
                  {
                    OFFSET -2.48547 -0.328903 0.83742
                  }
                }
              }
              JOINT rRing1
              {
                OFFSET -8.82822 0.546677 1.51678
                CHANNELS 3 Zrotation Xrotation Yrotation
                JOINT rRing2
                {
                  OFFSET -2.60934 -0.819778 -0.0198488
                  CHANNELS 3 Zrotation Xrotation Yrotation
                  End Site
                  {
                    OFFSET -2.33842 -0.294052 0.168128
                  }
                }
              }
              JOINT rPinky1
              {
                OFFSET -8.27202 -0.0477905 -0.4584
                CHANNELS 3 Zrotation Xrotation Yrotation
                JOINT rPinky2
                {
                  OFFSET -1.82734 -0.647385 -0.700984
                  CHANNELS 3 Zrotation Xrotation Yrotation
                  End Site
                  {
                    OFFSET -1.69225 -0.51767 -0.607171
                  }
                }
              }
            }
          }
        }
      }
      JOINT lCollar
      {
        OFFSET 2.68224 19.2634 -4.8768
        CHANNELS 3 Zrotation Xrotation Yrotation
        JOINT lShldr
        {
          OFFSET 8.77824 -1.95073 1.46304
          CHANNELS 3 Zrotation Xrotation Yrotation
          JOINT lForeArm
          {
            OFFSET 28.1742 -1.7115 0.48768
            CHANNELS 3 Zrotation Xrotation Yrotation
            JOINT lHand
            {
              OFFSET 22.5879 0.773209 7.07136
              CHANNELS 3 Zrotation Xrotation Yrotation
              JOINT lThumb1
              {
                OFFSET 1.2192 -0.487915 3.41376
                CHANNELS 3 Zrotation Xrotation Yrotation
                JOINT lThumb2
                {
                  OFFSET 3.37035 -0.52449 3.41376
                  CHANNELS 3 Zrotation Xrotation Yrotation
                  End Site
                  {
                    OFFSET 1.78271 -1.18214 1.43049
                  }
                }
              }
              JOINT lIndex1
              {
                OFFSET 7.75947 0.938293 5.60832
                CHANNELS 3 Zrotation Xrotation Yrotation
                JOINT lIndex2
                {
                  OFFSET 2.54057 -0.884171 1.56538
                  CHANNELS 3 Zrotation Xrotation Yrotation
                  End Site
                  {
                    OFFSET 1.62519 -0.234802 1.16502
                  }
                }
              }
              JOINT lMid1
              {
                OFFSET 8.24714 1.18213 3.41376
                CHANNELS 3 Zrotation Xrotation Yrotation
                JOINT lMid2
                {
                  OFFSET 3.10165 -0.590103 1.0647
                  CHANNELS 3 Zrotation Xrotation Yrotation
                  End Site
                  {
                    OFFSET 2.48547 -0.328903 0.83742
                  }
                }
              }
              JOINT lRing1
              {
                OFFSET 8.82822 0.546677 1.51678
                CHANNELS 3 Zrotation Xrotation Yrotation
                JOINT lRing2
                {
                  OFFSET 2.60934 -0.819778 -0.0198488
                  CHANNELS 3 Zrotation Xrotation Yrotation
                  End Site
                  {
                    OFFSET 2.33842 -0.294052 0.168128
                  }
                }
              }
              JOINT lPinky1
              {
                OFFSET 8.27202 -0.0477905 -0.4584
                CHANNELS 3 Zrotation Xrotation Yrotation
                JOINT lPinky2
                {
                  OFFSET 1.82734 -0.647385 -0.700984
                  CHANNELS 3 Zrotation Xrotation Yrotation
                  End Site
                  {
                    OFFSET 1.69225 -0.51767 -0.607171
                  }
                }
              }
            }
          }
        }
      }
    }
  }
  JOINT rButtock
  {
    OFFSET -8.77824 4.35084 1.2192
    CHANNELS 3 Zrotation Xrotation Yrotation
    JOINT rThigh
    {
      OFFSET 0 -1.70687 -2.19456
      CHANNELS 3 Zrotation Xrotation Yrotation
      JOINT rShin
      {
        OFFSET 0 -36.8199 0.73152
        CHANNELS 3 Zrotation Xrotation Yrotation
        JOINT rFoot
        {
          OFFSET 0.73152 -45.1104 -5.12064
          CHANNELS 3 Zrotation Xrotation Yrotation
          End Site
          {
            OFFSET -1.1221 -3.69964 12.103
          }
        }
      }
    }
  }
  JOINT lButtock
  {
    OFFSET 8.77824 4.35084 1.2192
    CHANNELS 3 Zrotation Xrotation Yrotation
    JOINT lThigh
    {
      OFFSET 0 -1.70687 -2.19456
      CHANNELS 3 Zrotation Xrotation Yrotation
      JOINT lShin
      {
        OFFSET 0 -36.8199 0.73152
        CHANNELS 3 Zrotation Xrotation Yrotation
        JOINT lFoot
        {
          OFFSET -0.73152 -45.1104 -5.12064
          CHANNELS 3 Zrotation Xrotation Yrotation
          End Site
          {
            OFFSET 1.1221 -3.69964 12.103
          }
        }
      }
    }
  }
}
MOTION
Frames:	4
Frame Time:	0.00833333
-25.0086 80.0752 -10.4971 1.17499 0.00318796 -0.022011 -1.54496 -0.00284638 -0.042052 -0.425431 0.00110966 -0.0736765 -3.90663e-014 7.95139e-016 1.49088e-016 -1.16888e-013 3.18055e-015 3.94463e-016 -0 0 0 -0 0 0 -1.91354e-014 -8.15328e-017 2.48481e-016 -4.07627e-013 -1.85118e-015 9.93923e-016 -7.03449e-012 2.0447e-012 1.11319e-013 -8.0489e-011 -2.42045e-012 1.39944e-013 -1.89867e-010 -8.14576e-013 5.78861e-013 -3.27905e-010 -1.40581e-012 1.00267e-012 -1.89861e-010 -8.13824e-013 5.725e-013 7.73091 5.47488 0.417314 -1.89866e-010 -8.1452e-013 5.82042e-013 2.90554 0.965183 0.102902 -1.8986e-010 -8.1462e-013 5.78066e-013 10.2786 0.731801 0.0259123 -1.89871e-010 -8.11439e-013 5.85222e-013 2.22167 -0.733487 -0.20892 -1.94301e-014 -7.90091e-017 -1.49089e-016 -4.1042e-013 -2.04375e-015 -5.96354e-016 -7.03638e-012 -2.16317e-012 8.5875e-014 -8.05093e-011 1.78978e-012 1.87653e-013 -1.89902e-010 -8.07742e-013 5.69319e-013 -3.27935e-010 -1.39308e-012 1.00506e-012 -1.89906e-010 -8.06668e-013 5.88403e-013 -7.73091 5.47488 -0.417314 -1.89901e-010 -8.0806e-013 5.7568e-013 -2.90554 0.965183 -0.102902 -1.89903e-010 -8.07563e-013 5.76476e-013 -10.2786 0.731801 -0.0259123 -1.89893e-010 -8.0468e-013 5.69319e-013 -2.22167 -0.733487 0.20892 -2.03217e-016 0 -3.88251e-019 -0.63151 -1.92333 -0.00658866 -0.00945199 -2.07853 -0.0781727 -0.541018 3.99724 0.144578 2.03217e-016 0 3.88251e-019 -1.7142 -6.54909 0.158523 -0.00227286 6.30065 -0.0690916 0.559252 0.243953 -0.0686186 
-21.6347 77.7109 -16.0895 2.21048 5.52807 23.4384 -1.69828 -2.71884 1.79137 -0.0652687 0.363076 0.476655 0.0467725 7.07555 5.98308 -3.94435 -10.4088 11.0548 -0 0 0 -0 0 0 -1.89101e-014 -2.94415e-014 -2.19533e-014 -1.62965 -2.48232 15.5499 -10.8166 -7.69602 12.8077 0.0214249 -3.24903 -0.453976 -1.88518e-010 -5.84046e-011 -1.0332e-010 -3.2415e-010 -1.01721e-010 -1.78514e-010 -1.88515e-010 -5.84028e-011 -1.03325e-010 7.73091 5.47488 0.417314 -1.88519e-010 -5.84036e-011 -1.0332e-010 2.90554 0.965183 0.102902 -1.88512e-010 -5.84043e-011 -1.03321e-010 10.2786 0.731801 0.0259123 -1.88523e-010 -5.84028e-011 -1.03314e-010 2.22167 -0.733487 -0.20892 -1.91631e-014 -2.94397e-014 -2.23532e-014 0.364587 -3.12094 -16.69 9.9078 -6.767 -12.2421 -0.00437353 1.46705 -0.205936 2.21543e-011 7.22768e-011 7.09306e-011 3.84993e-011 1.25338e-010 1.21652e-010 2.21518e-011 7.22787e-011 7.09454e-011 -7.73091 5.47488 -0.417314 2.21557e-011 7.22775e-011 7.09354e-011 -2.90554 0.965183 -0.102902 2.21519e-011 7.22773e-011 7.0935e-011 -10.2786 0.731801 -0.0259123 2.2162e-011 7.22792e-011 7.09283e-011 -2.22167 -0.733487 0.20892 -2.03217e-016 0 -3.88251e-019 -2.774 -11.9974 -0.692828 0.0349058 12.2278 0.139144 -1.05454 -0.0512049 -4.76634 2.03217e-016 0 3.88251e-019 1.05855 -15.2802 -0.793266 -0.0308011 19.0262 -0.285747 1.14155 -5.56093 3.60369 
-21.6366 77.7105 -16.096 -1.04111 8.25786 48.6715 -1.6721 -5.59122 3.73812 0.311413 0.778203 1.05668 -1.54541 14.2889 12.613 -3.63458 -20.1097 23.8977 -0 0 0 -0 0 0 -1.88854e-014 -6.15526e-014 -4.64908e-014 -1.9729 -4.53773 32.0776 -18.5389 -14.5362 27.0382 -0.0122293 -6.67256 -0.937305 -1.82529e-010 -1.21879e-010 -2.12526e-010 -3.12317e-010 -2.12207e-010 -3.67125e-010 -1.82529e-010 -1.21876e-010 -2.1253e-010 7.73091 5.47488 0.417314 -1.82531e-010 -1.21876e-010 -2.12531e-010 2.90554 0.965183 0.102902 -1.82523e-010 -1.21878e-010 -2.12529e-010 10.2786 0.731801 0.0259123 -1.82534e-010 -1.21878e-010 -2.1252e-010 2.22167 -0.733487 -0.20892 -1.90961e-014 -6.15518e-014 -4.68945e-014 -1.10144 -5.57616 -34.4597 17.269 -12.8799 -25.6955 0.00248314 3.01702 -0.423971 2.51336e-010 1.54526e-010 1.42387e-010 4.34532e-010 2.67925e-010 2.44122e-010 2.51335e-010 1.54529e-010 1.42397e-010 -7.73091 5.47488 -0.417314 2.51338e-010 1.54528e-010 1.4239e-010 -2.90554 0.965183 -0.102902 2.51332e-010 1.54527e-010 1.42389e-010 -10.2786 0.731801 -0.0259123 2.51343e-010 1.54528e-010 1.42383e-010 -2.22167 -0.733487 0.20892 -2.03217e-016 0 -3.88251e-019 -5.32255 -22.6427 -1.50246 -0.0479964 27.3509 0.407874 -2.34969 -4.26706 -9.98571 2.03217e-016 0 3.88251e-019 3.64454 -24.5005 -1.91201 0.0629406 32.4765 -0.572656 2.57825 -11.6176 7.60573 
-21.6529 77.7107 -16.1028 -5.57991 6.08237 70.9247 -1.47987 -8.11768 5.50752 0.634195 1.08663 1.57757 -4.45646 20.2724 19.032 0.582204 -26.3543 36.9744 -0 0 0 -0 0 0 -1.84595e-014 -8.81613e-014 -6.63568e-014 -1.32778 -5.30185 46.8658 -22.5557 -18.4243 40.5382 -0.0920944 -9.74463 -1.37965 -1.85822e-010 -1.73585e-010 -3.11118e-010 -3.16639e-010 -3.02352e-010 -5.37547e-010 -1.85823e-010 -1.73581e-010 -3.11121e-010 7.73091 5.47488 0.417314 -1.85824e-010 -1.73582e-010 -3.11125e-010 2.90554 0.965183 0.102902 -1.85815e-010 -1.73584e-010 -3.1112e-010 10.2786 0.731801 0.0259123 -1.85827e-010 -1.73586e-010 -3.11111e-010 2.22167 -0.733487 -0.20892 -1.8629e-014 -8.81612e-014 -6.67614e-014 -3.61713 -6.26532 -50.4055 21.4147 -16.569 -38.3235 0.018596 4.40091 -0.619431 4.46267e-010 2.18446e-010 2.11653e-010 7.71368e-010 3.78799e-010 3.62947e-010 4.46268e-010 2.18449e-010 2.11659e-010 -7.73091 5.47488 -0.417314 4.46269e-010 2.18449e-010 2.11655e-010 -2.90554 0.965183 -0.102902 4.46261e-010 2.18447e-010 2.11652e-010 -10.2786 0.731801 -0.0259123 4.46273e-010 2.18447e-010 2.11646e-010 -2.22167 -0.733487 0.20892 -2.03217e-016 0 -3.88251e-019 -7.89633 -32.1256 -2.3853 -0.281325 40.8383 0.74576 -4.15428 -7.88428 -14.7298 2.03217e-016 0 3.88251e-019 5.58948 -32.7082 -3.10306 0.308706 44.4741 -0.943253 4.60762 -16.8839 11.3947 
